# xmcd
#
# Track frame offsets: 
#        150
#        12889
#        26648
#        44768
#        57051
#        70872
#        85413
#        100425
#        115726
#        128250
#        141601
#        154152
#
# Disc length: 2245 seconds
#
# Revision: 0
# Processed by: cddbd v1.5.2PL0 Copyright (c) Steve Scherf et al.
# Submitted via: ExactAudioCopy v0.99pb3
#
DISCID=a208c30c
DTITLE=David Marks - I Think About You Often
DYEAR=2007
DGENRE=Blues
TTITLE0=Like 1969
TTITLE1=Bamboo Shack
TTITLE2=Light of the Spirit
TTITLE3=I Fall into the Grace
TTITLE4=Big Wave
TTITLE5=Stowaway
TTITLE6=I'm So Clever
TTITLE7=Pretty Eyes
TTITLE8=Dancin' in the Mirror
TTITLE9=I Ain't Goin' Surfin'
TTITLE10=Have You Ever Been Duped
TTITLE11=I Think About You Often
EXTD=
EXTT0=
EXTT1=
EXTT2=
EXTT3=
EXTT4=
EXTT5=
EXTT6=
EXTT7=
EXTT8=
EXTT9=
EXTT10=
EXTT11=
PLAYORDER=
